<svg viewBox="0 0 33 32" fill="none" xmlns="http://www.w3.org/2000/svg">
<path d="M29.261 22.932L28.7818 22.7893V22.7893L29.261 22.932ZM29.261 3.73322L28.7818 3.87595V3.87595L29.261 3.73322ZM13.341 3.73322L13.8202 3.87595H13.8202L13.341 3.73322ZM13.3152 10.7639L12.8152 10.763L12.8144 11.2196L13.2691 11.2617L13.3152 10.7639ZM19.1284 13.0666L18.6492 13.2093L18.6492 13.2093L19.1284 13.0666ZM19.1663 25.2358L18.6663 25.2365L18.6669 25.692L19.1205 25.7337L19.1663 25.2358ZM28.8005 22.6653C28.8005 22.7051 28.7947 22.746 28.7818 22.7893L29.7402 23.0747C29.7796 22.9426 29.8005 22.8056 29.8005 22.6653H28.8005ZM28.7818 3.87595C28.7764 3.85629 28.7695 3.82518 28.7676 3.81413C28.7665 3.80717 28.7649 3.79521 28.7644 3.79061C28.7634 3.78152 28.7629 3.77484 28.7628 3.77297C28.7625 3.7686 28.7625 3.76694 28.7626 3.77028C28.7628 3.77607 28.7631 3.78727 28.7635 3.80539C28.7643 3.84089 28.765 3.89403 28.7658 3.96469C28.7673 4.10553 28.7688 4.31047 28.7702 4.57095C28.7731 5.09163 28.7757 5.83122 28.7782 6.7171C28.7831 8.48871 28.7872 10.8438 28.7905 13.1991C28.7971 17.9099 28.8005 22.6207 28.8005 22.6653H29.8005C29.8005 22.62 29.7971 17.9086 29.7905 13.1977C29.7872 10.8423 29.7831 8.48664 29.7782 6.71432C29.7757 5.82823 29.7731 5.08754 29.7702 4.56545C29.7687 4.30454 29.7673 4.09747 29.7657 3.95391C29.7649 3.88237 29.7641 3.82522 29.7633 3.7846C29.7629 3.76466 29.7624 3.74634 29.7618 3.73144C29.7616 3.72444 29.7611 3.71465 29.7604 3.70438C29.7601 3.69957 29.7594 3.6905 29.7582 3.67959C29.7576 3.67408 29.7559 3.66136 29.7547 3.65376C29.7526 3.64209 29.7457 3.6105 29.7402 3.59049L28.7818 3.87595ZM21.301 1.83337C23.3375 1.83337 25.1765 2.09225 26.5407 2.50643C27.224 2.71389 27.7696 2.95473 28.1577 3.20835C28.5555 3.46827 28.7303 3.70319 28.7818 3.87595L29.7402 3.59049C29.591 3.08951 29.1889 2.68759 28.7047 2.37121C28.2109 2.04853 27.5693 1.77364 26.8313 1.54956C25.3528 1.10069 23.4125 0.833374 21.301 0.833374V1.83337ZM13.8202 3.87595C13.8717 3.70319 14.0465 3.46827 14.4443 3.20835C14.8324 2.95473 15.378 2.71389 16.0613 2.50643C17.4255 2.09225 19.2645 1.83337 21.301 1.83337V0.833374C19.1895 0.833374 17.2492 1.10069 15.7708 1.54956C15.0327 1.77364 14.3911 2.04853 13.8973 2.37121C13.4131 2.68759 13.011 3.08951 12.8618 3.59049L13.8202 3.87595ZM13.8152 10.7647C13.8184 8.87762 13.8222 7.12935 13.8265 5.84844C13.8286 5.20789 13.8309 4.6847 13.8333 4.31959C13.8345 4.13688 13.8358 3.99465 13.837 3.89739C13.8377 3.84848 13.8383 3.81256 13.8389 3.78908C13.8392 3.77694 13.8394 3.77075 13.8395 3.76873C13.8395 3.76729 13.8394 3.77078 13.8389 3.7768C13.8387 3.77957 13.8381 3.78701 13.8369 3.79683C13.8368 3.79766 13.8329 3.83318 13.8202 3.87595L12.8618 3.59049C12.8489 3.63383 12.8449 3.6703 12.8446 3.67247C12.8432 3.68364 12.8425 3.6928 12.8421 3.69768C12.8413 3.70792 12.8408 3.71717 12.8405 3.72299C12.84 3.73552 12.8395 3.74992 12.8392 3.76428C12.8384 3.7938 12.8378 3.83446 12.8371 3.88444C12.8358 3.98495 12.8346 4.12973 12.8333 4.31296C12.8309 4.67976 12.8286 5.20428 12.8265 5.84508C12.8222 7.12686 12.8184 8.8758 12.8152 10.763L13.8152 10.7647ZM13.2691 11.2617C14.8016 11.4037 16.1234 11.6955 17.0882 12.0745C17.5711 12.2642 17.948 12.4694 18.2146 12.6761C18.4849 12.8857 18.6077 13.0699 18.6492 13.2093L19.6076 12.9239C19.4845 12.5104 19.1892 12.1664 18.8273 11.8858C18.4617 11.6024 17.9923 11.3553 17.4539 11.1438C16.3763 10.7204 14.9562 10.4137 13.3613 10.266L13.2691 11.2617ZM18.6492 13.2093C18.6393 13.1759 18.6353 13.1491 18.6344 13.1432C18.6328 13.1327 18.6319 13.1247 18.6315 13.1207C18.6307 13.1128 18.6304 13.1074 18.6304 13.107C18.6303 13.1054 18.6304 13.1074 18.6307 13.1151C18.6312 13.1294 18.6317 13.1527 18.6323 13.1858C18.6335 13.2514 18.6347 13.3475 18.6359 13.4717C18.6383 13.7198 18.6405 14.075 18.6426 14.511C18.6468 15.3828 18.6505 16.5753 18.6536 17.8746C18.66 20.473 18.6642 23.4976 18.6663 25.2365L19.6663 25.2352C19.6642 23.4962 19.66 20.4712 19.6536 17.8721C19.6505 16.5726 19.6468 15.3792 19.6426 14.5062C19.6405 14.0698 19.6382 13.7127 19.6359 13.4623C19.6347 13.3373 19.6335 13.2376 19.6322 13.1675C19.6315 13.1327 19.6308 13.1031 19.6301 13.0806C19.6297 13.0697 19.6292 13.0572 19.6284 13.0452C19.6281 13.0396 19.6275 13.03 19.6263 13.0189C19.6258 13.0134 19.6247 13.0039 19.623 12.9925C19.6219 12.9855 19.6177 12.9578 19.6076 12.9239L18.6492 13.2093ZM21.301 24.8318C20.5767 24.8318 19.8761 24.7991 19.2122 24.738L19.1205 25.7337C19.8156 25.7977 20.5468 25.8318 21.301 25.8318V24.8318ZM28.7818 22.7893C28.7303 22.962 28.5555 23.1969 28.1577 23.4569C27.7696 23.7105 27.224 23.9513 26.5407 24.1588C25.1765 24.573 23.3375 24.8318 21.301 24.8318V25.8318C23.4125 25.8318 25.3528 25.5645 26.8313 25.1157C27.5693 24.8916 28.2109 24.6167 28.7047 24.294C29.1889 23.9776 29.591 23.5757 29.7402 23.0747L28.7818 22.7893Z" fill="currentColor"/>
<path d="M19.1667 26.6666C19.1667 26.7566 19.1534 26.8456 19.1272 26.9333C18.7259 28.2808 15.315 30 11.1667 30C7.01847 30 3.60763 28.2808 3.20625 26.9333C3.18012 26.8456 3.16675 26.7566 3.16675 26.6666C3.16675 26.5766 3.18012 13.1543 3.20625 13.0666C3.60763 11.7191 7.01847 10.6666 11.1667 10.6666C15.315 10.6666 18.7259 11.7191 19.1272 13.0666C19.1534 13.1543 19.1667 26.5766 19.1667 26.6666Z" stroke="currentColor"/>
<path d="M19.1631 13.3334C19.1631 15.3334 15.584 16.6667 11.1667 16.6667C6.74949 16.6667 3.17043 15.3334 3.16675 13.3334" stroke="currentColor"/>
<path d="M29.3 4C28.8716 4.74074 25.584 6.33333 21.1667 6.33333C16.7495 6.33333 13.8334 4.66667 13.1667 4" stroke="currentColor"/>
<path d="M29.1667 16.6666C28.5001 18 23.8334 19.3333 19.1667 18.6666" stroke="currentColor"/>
<path d="M29.1667 10.6666C28.5001 12 23.8334 13.3333 19.1667 12.6666" stroke="currentColor"/>
<path d="M19.1631 20C19.1667 21.3333 15.584 23.3333 11.1667 23.3333C6.74949 23.3333 3.16675 21.3333 3.16675 20" stroke="currentColor"/>
</svg>
