<svg viewBox="0 0 33 32" fill="none" xmlns="http://www.w3.org/2000/svg">
<path d="M8.5 28C10.7091 28 12.5 26.2091 12.5 24C12.5 21.7909 10.7091 20 8.5 20C6.29086 20 4.5 21.7909 4.5 24C4.5 26.2091 6.29086 28 8.5 28Z" stroke="currentColor" stroke-width="1.5" stroke-linecap="round" stroke-linejoin="round"/>
<path d="M24.5 12C24.5 15.1826 23.2357 18.2348 20.9853 20.4853C18.7348 22.7357 15.6826 24 12.5 24" stroke="currentColor" stroke-width="1.5" stroke-linecap="round" stroke-linejoin="round"/>
<path d="M24.5 12C26.7091 12 28.5 10.2091 28.5 8C28.5 5.79086 26.7091 4 24.5 4C22.2909 4 20.5 5.79086 20.5 8C20.5 10.2091 22.2909 12 24.5 12Z" stroke="currentColor" stroke-width="1.5" stroke-linecap="round" stroke-linejoin="round"/>
<path d="M8.5 4V20" stroke="currentColor" stroke-width="1.5" stroke-linecap="round" stroke-linejoin="round"/>
</svg>
